<svg width="38" height="29" viewBox="0 0 38 29" fill="none" xmlns="http://www.w3.org/2000/svg">
<path d="M38 14.5C38 14.9273 37.8332 15.3371 37.5363 15.6392C37.2393 15.9414 36.8366 16.1111 36.4167 16.1111H1.58333C1.16341 16.1111 0.76068 15.9414 0.463748 15.6392C0.166815 15.3371 0 14.9273 0 14.5C0 14.0727 0.166815 13.6629 0.463748 13.3608C0.76068 13.0586 1.16341 12.8889 1.58333 12.8889H36.4167C36.8366 12.8889 37.2393 13.0586 37.5363 13.3608C37.8332 13.6629 38 14.0727 38 14.5ZM1.58333 3.22222H36.4167C36.8366 3.22222 37.2393 3.05248 37.5363 2.75034C37.8332 2.4482 38 2.0384 38 1.61111C38 1.18382 37.8332 0.774026 37.5363 0.471884C37.2393 0.169742 36.8366 0 36.4167 0H1.58333C1.16341 0 0.76068 0.169742 0.463748 0.471884C0.166815 0.774026 0 1.18382 0 1.61111C0 2.0384 0.166815 2.4482 0.463748 2.75034C0.76068 3.05248 1.16341 3.22222 1.58333 3.22222ZM36.4167 25.7778H1.58333C1.16341 25.7778 0.76068 25.9475 0.463748 26.2497C0.166815 26.5518 0 26.9616 0 27.3889C0 27.8162 0.166815 28.226 0.463748 28.5281C0.76068 28.8303 1.16341 29 1.58333 29H36.4167C36.8366 29 37.2393 28.8303 37.5363 28.5281C37.8332 28.226 38 27.8162 38 27.3889C38 26.9616 37.8332 26.5518 37.5363 26.2497C37.2393 25.9475 36.8366 25.7778 36.4167 25.7778Z" fill="#699BF7"/>
</svg>
