<svg width="30" height="37" viewBox="0 0 30 37" fill="none" xmlns="http://www.w3.org/2000/svg">
<path d="M0 18.5C0 18.9907 0.197544 19.4612 0.549175 19.8081C0.900806 20.1551 1.37772 20.35 1.875 20.35H16.1063L11.7937 24.5865C11.618 24.7585 11.4785 24.9631 11.3833 25.1885C11.2881 25.414 11.2391 25.6558 11.2391 25.9C11.2391 26.1442 11.2881 26.386 11.3833 26.6115C11.4785 26.8369 11.618 27.0415 11.7937 27.2135C11.9681 27.3869 12.1754 27.5245 12.4039 27.6185C12.6324 27.7124 12.8775 27.7607 13.125 27.7607C13.3725 27.7607 13.6176 27.7124 13.8461 27.6185C14.0746 27.5245 14.2819 27.3869 14.4563 27.2135L21.9562 19.8135C22.127 19.6376 22.2608 19.4301 22.35 19.203C22.5375 18.7526 22.5375 18.2474 22.35 17.797C22.2608 17.5699 22.127 17.3624 21.9562 17.1865L14.4563 9.7865C14.2814 9.61401 14.0739 9.47718 13.8455 9.38383C13.6171 9.29048 13.3722 9.24243 13.125 9.24243C12.8778 9.24243 12.6329 9.29048 12.4045 9.38383C12.1761 9.47718 11.9686 9.61401 11.7937 9.7865C11.6189 9.95899 11.4803 10.1638 11.3856 10.3891C11.291 10.6145 11.2423 10.8561 11.2423 11.1C11.2423 11.3439 11.291 11.5855 11.3856 11.8109C11.4803 12.0362 11.6189 12.241 11.7937 12.4135L16.1063 16.65H1.875C1.37772 16.65 0.900806 16.8449 0.549175 17.1919C0.197544 17.5388 0 18.0093 0 18.5ZM24.375 0H5.625C4.13316 0 2.70242 0.584731 1.64752 1.62556C0.592632 2.66638 0 4.07805 0 5.55V11.1C0 11.5907 0.197544 12.0612 0.549175 12.4081C0.900806 12.7551 1.37772 12.95 1.875 12.95C2.37228 12.95 2.84919 12.7551 3.20082 12.4081C3.55246 12.0612 3.75 11.5907 3.75 11.1V5.55C3.75 5.05935 3.94754 4.5888 4.29918 4.24185C4.65081 3.89491 5.12772 3.7 5.625 3.7H24.375C24.8723 3.7 25.3492 3.89491 25.7008 4.24185C26.0525 4.5888 26.25 5.05935 26.25 5.55V31.45C26.25 31.9407 26.0525 32.4112 25.7008 32.7581C25.3492 33.1051 24.8723 33.3 24.375 33.3H5.625C5.12772 33.3 4.65081 33.1051 4.29918 32.7581C3.94754 32.4112 3.75 31.9407 3.75 31.45V25.9C3.75 25.4093 3.55246 24.9388 3.20082 24.5919C2.84919 24.2449 2.37228 24.05 1.875 24.05C1.37772 24.05 0.900806 24.2449 0.549175 24.5919C0.197544 24.9388 0 25.4093 0 25.9V31.45C0 32.922 0.592632 34.3336 1.64752 35.3744C2.70242 36.4153 4.13316 37 5.625 37H24.375C25.8668 37 27.2976 36.4153 28.3525 35.3744C29.4074 34.3336 30 32.922 30 31.45V5.55C30 4.07805 29.4074 2.66638 28.3525 1.62556C27.2976 0.584731 25.8668 0 24.375 0Z" fill="#699BF7"/>
</svg>
